<svg width="14" height="14" viewBox="0 0 14 14" fill="none" xmlns="http://www.w3.org/2000/svg">
	<path
		d="M12.6 7C12.6 6.2646 12.4549 5.53636 12.1734 4.85693C11.892 4.17756 11.48 3.55992 10.9601 3.03994C10.4401 2.51997 9.82244 2.10799 9.14307 1.82656C8.46364 1.54514 7.7354 1.4 7 1.4C6.2646 1.4 5.53636 1.54514 4.85693 1.82656C4.17756 2.10799 3.55991 2.51997 3.03994 3.03994C2.51997 3.55991 2.10799 4.17756 1.82656 4.85693C1.54514 5.53636 1.4 6.2646 1.4 7C1.4 7.7354 1.54514 8.46364 1.82656 9.14307C2.10799 9.82244 2.51997 10.4401 3.03994 10.9601C3.55992 11.48 4.17756 11.892 4.85693 12.1734C5.53636 12.4549 6.2646 12.6 7 12.6C7.7354 12.6 8.46364 12.4549 9.14307 12.1734C9.82244 11.892 10.4401 11.48 10.9601 10.9601C11.48 10.4401 11.892 9.82244 12.1734 9.14307C12.4549 8.46364 12.6 7.7354 12.6 7ZM14 7C14 7.91925 13.8193 8.82972 13.4675 9.679C13.1157 10.5283 12.5999 11.2999 11.9499 11.9499C11.2999 12.5999 10.5283 13.1157 9.679 13.4675C8.82972 13.8193 7.91925 14 7 14C6.08075 14 5.17028 13.8193 4.321 13.4675C3.47175 13.1157 2.70009 12.5999 2.0501 11.9499C1.40011 11.2999 0.884302 10.5283 0.53252 9.679C0.180737 8.82972 0 7.91925 0 7C0 6.08075 0.180737 5.17028 0.53252 4.321C0.884302 3.47175 1.40011 2.70009 2.0501 2.0501C2.70009 1.40011 3.47175 0.884302 4.321 0.53252C5.17027 0.180737 6.08075 0 7 0C7.91925 0 8.82972 0.180737 9.679 0.53252C10.5283 0.884302 11.2999 1.40011 11.9499 2.0501C12.5999 2.70009 13.1157 3.47175 13.4675 4.321C13.8193 5.17028 14 6.08075 14 7Z"
		fill="#A1B0B8" />
	<path
		d="M5.6 7C5.6 6.6287 5.74761 6.27271 6.01016 6.01016C6.27271 5.74761 6.6287 5.6 7 5.6C7.3713 5.6 7.72729 5.74761 7.98984 6.01016C8.25239 6.27271 8.4 6.6287 8.4 7C8.4 7.3713 8.25239 7.72729 7.98984 7.98984C7.72729 8.25239 7.3713 8.4 7 8.4C6.6287 8.4 6.27271 8.25239 6.01016 7.98984C5.74761 7.72729 5.6 7.3713 5.6 7Z"
		fill="#A1B0B8" />
	<path
		d="M2.8 7C2.8 5.88609 3.24282 4.81812 4.03047 4.03047C4.81812 3.24282 5.88609 2.8 7 2.8C7.3866 2.8 7.7 3.1134 7.7 3.5C7.7 3.8866 7.3866 4.2 7 4.2C6.25739 4.2 5.54541 4.49521 5.02031 5.02031C4.49521 5.54541 4.2 6.25739 4.2 7C4.2 7.3866 3.8866 7.7 3.5 7.7C3.1134 7.7 2.8 7.3866 2.8 7Z"
		fill="#A1B0B8" />
	<path
		d="M9.8 7C9.8 6.6134 10.1134 6.3 10.5 6.3C10.8866 6.3 11.2 6.6134 11.2 7C11.2 8.11391 10.7572 9.18188 9.96953 9.96953C9.18188 10.7572 8.11391 11.2 7 11.2C6.6134 11.2 6.3 10.8866 6.3 10.5C6.3 10.1134 6.6134 9.8 7 9.8C7.74261 9.8 8.45459 9.50479 8.97969 8.97969C9.50479 8.45459 9.8 7.74261 9.8 7Z"
		fill="#A1B0B8" />
</svg>