<svg width="14" height="14" viewBox="0 0 14 14" fill="none" xmlns="http://www.w3.org/2000/svg">
	<path
		d="M7.81014 0.500533C8.60523 0.0729725 9.51764 -0.0865163 10.4108 0.0446658C11.3038 0.175953 12.1305 0.591442 12.7689 1.22945C13.4075 1.8676 13.8234 2.69425 13.955 3.5873C14.0867 4.48039 13.9275 5.39248 13.5003 6.18774C13.0731 6.98281 12.4012 7.61971 11.584 8.003C10.7667 8.38631 9.8469 8.49589 8.96223 8.3159C8.58335 8.23881 8.33897 7.86856 8.41607 7.48971C8.4933 7.11113 8.86248 6.86669 9.24117 6.94361C9.83088 7.0636 10.4438 6.99046 10.9887 6.73501C11.5336 6.47947 11.9825 6.05462 12.2673 5.52445C12.5519 4.99441 12.6574 4.3864 12.5697 3.79121C12.4819 3.1961 12.2052 2.64502 11.7798 2.2197C11.3541 1.7943 10.8023 1.51733 10.2069 1.42985C9.61152 1.3424 9.00351 1.44841 8.4735 1.73337C7.9435 2.0184 7.51929 2.46701 7.26398 3.0119C7.00872 3.55682 6.93628 4.16961 7.05653 4.7592C7.1338 5.13789 6.88902 5.50795 6.51037 5.58539C6.13153 5.66267 5.76139 5.41808 5.6841 5.03928C5.50366 4.15483 5.61294 3.2352 5.99585 2.41775C6.37882 1.60045 7.01516 0.928061 7.81014 0.500533Z"
		fill="#A1B0B8" />
	<path
		d="M6.34648 4.20061C6.53985 4.19415 6.72753 4.26793 6.86451 4.40452L9.59648 7.13387C9.73358 7.27084 9.808 7.45934 9.80159 7.65302C9.7951 7.84659 9.70827 8.02938 9.56249 8.15693L3.55004 13.4164C3.15946 13.7898 2.64061 14.0002 2.09908 14C1.82327 13.9999 1.54984 13.9451 1.29508 13.8394C1.04033 13.7338 0.809055 13.5787 0.614138 13.3836C0.419358 13.1886 0.264795 12.9573 0.159395 12.7027C0.0540124 12.4479 -0.000113032 12.1745 1.77226e-07 11.8988C0.000287494 11.3571 0.210837 10.8382 0.584837 10.448L5.84368 4.43968L5.94799 4.34124C6.06214 4.25507 6.20124 4.20551 6.34648 4.20061ZM1.39939 11.8988C1.39934 11.9907 1.41816 12.0822 1.4533 12.1672C1.48844 12.2521 1.53954 12.3295 1.60449 12.3945C1.66947 12.4595 1.74694 12.5116 1.83186 12.5468C1.91654 12.5819 2.00744 12.5995 2.09908 12.5996C2.28477 12.5997 2.46348 12.5257 2.59485 12.3945L2.62884 12.3629L8.07638 7.59559L6.40391 5.9233L1.63731 11.3703C1.62712 11.3819 1.6166 11.3933 1.60566 11.4043C1.47441 11.5354 1.39962 11.7133 1.39939 11.8988Z"
		fill="#A1B0B8" />
</svg>